<svg xmlns="http://www.w3.org/2000/svg" width="54" height="44" fill="none" viewBox="0 0 54 44"><g clip-path="url(#clip0_4_52)"><path fill="red" fill-rule="evenodd" d="M23.2731 3.18063e-06C12.8747 1.92667 5 11.0437 5 22C5 32.9563 12.8747 42.0733 23.2731 44V39.2363C15.468 37.3857 9.6615 30.3709 9.6615 22C9.6615 13.6291 15.468 6.6143 23.2731 4.7637V3.18063e-06ZM31.4773 39.2363C39.2824 37.3857 45.0889 30.371 45.0889 22C45.0889 13.6291 39.2824 6.61429 31.4773 4.7637V0C41.8756 1.92666 49.7504 11.0437 49.7504 22C49.7504 32.9563 41.8756 42.0734 31.4773 44V39.2363Z" clip-rule="evenodd"/><path fill="#fff" fill-rule="evenodd" d="M40.8424 12.6999L36.7174 8.57489L27.3962 17.896L18.0751 8.57489L13.9501 12.6999L23.2712 22.0211L13.9501 31.3422L18.0751 35.4672L27.3962 26.1461L36.7174 35.4672L40.8424 31.3422L31.5213 22.0211L40.8424 12.6999Z" clip-rule="evenodd"/></g><defs><clipPath id="clip0_4_52"><rect width="53.87" height="43.61" fill="#fff"/></clipPath></defs></svg>